#!OML:ASF H:\Terrain\Patient Classification 1\Walking\liu\liu.ASF
:FULLY-SPECIFIED
:DEGREES
194
root 8.945717 18.300369 -11.280280 7.724123 4.542527 -3.124132
lowerback -4.664396 1.840674 1.125619
upperback -1.659427 2.373250 3.680424
thorax 0.807958 1.195293 3.264393
lowerneck -14.889930 -7.532514 -17.547529
upperneck 14.911270 -9.736859 17.839140
head 8.669837 -4.132425 7.793423
rclavicle 0.000000 0.000000
rhumerus -40.813301 9.835772 -86.156509
rradius 53.342190
rwrist -29.414221
rhand -40.019318 -26.585352
rfingers 7.837522
rthumb -10.425405 -59.328938
lclavicle 0.000000 0.000000
lhumerus -54.188751 -10.959850 105.496384
lradius 33.907719
lwrist 15.516820
lhand -13.746810 -27.398140
lfingers 7.837522
lthumb 14.935690 5.092791
rfemur -11.003630 6.303627 31.773390
rtibia 26.673460
rfoot -23.161711 1.299012
rtoes -11.204600
lfemur -43.038708 6.544472 -21.789791
ltibia 49.431030
lfoot -16.284290 10.846462
ltoes -13.853510
195
root 8.952394 18.286839 -11.138491 7.693290 4.529349 -3.138619
lowerback -4.862891 1.611786 0.868009
upperback -0.941206 2.047584 3.705691
thorax 1.662287 1.024277 3.440811
lowerneck -17.562160 -7.667473 -16.469421
upperneck 15.602620 -9.746462 17.185629
head 9.293515 -4.011678 7.351410
rclavicle -0.000000 -0.000000
rhumerus -38.991150 9.872027 -86.114052
rradius 53.802757
rwrist -28.219179
rhand -38.411121 -29.494080
rfingers 7.837522
rthumb -8.873468 -62.302681
lclavicle -0.000000 -0.000000
lhumerus -52.813091 -11.010120 105.287605
lradius 33.285229
lwrist 15.092330
lhand -14.274590 -27.360741
lfingers 7.837522
lthumb 14.427051 5.163631
rfemur -10.042902 6.101018 31.883720
rtibia 25.913580
rfoot -22.804102 1.539450
rtoes -10.719610
lfemur -43.442741 6.015768 -21.773180
ltibia 47.355110
lfoot -16.168459 10.439044
ltoes -13.006730
196
root 8.956002 18.285631 -10.995710 7.634154 4.389088 -3.506767
lowerback -4.660106 1.652035 1.112804
upperback -1.209318 2.103937 3.854851
thorax 1.273437 1.056604 3.448346
lowerneck -16.753769 -7.574820 -16.506599
upperneck 15.278231 -9.649738 17.019751
head 9.016932 -4.019059 7.313900
rclavicle -0.000000 0.000000
rhumerus -39.230511 9.909549 -86.265411
rradius 54.007801
rwrist -28.170889
rhand -38.030739 -30.439310
rfingers 7.837522
rthumb -8.506332 -63.261772
lclavicle -0.000000 0.000000
lhumerus -53.610592 -11.096690 105.712753
lradius 33.068748
lwrist 14.269200
lhand -14.912590 -27.125559
lfingers 7.837522
lthumb 13.811931 5.437355
rfemur -9.116162 5.987058 32.376522
rtibia 25.207159
rfoot -22.464972 1.670108
rtoes -9.848202
lfemur -43.800240 5.665363 -21.333069
ltibia 45.264889
lfoot -16.020620 10.280556
ltoes -13.073610
197
root 8.962063 18.275400 -10.854888 7.607248 4.195642 -3.951816
lowerback -4.951705 1.724349 1.419726
upperback -0.344430 2.141502 3.963366
thorax 2.331186 1.068167 3.419328
lowerneck -19.736311 -7.962603 -15.785440
upperneck 15.925690 -9.921251 16.419369
head 9.744768 -4.029355 6.909870
rclavicle 0.000000 0.000000
rhumerus -37.712070 11.421519 -87.394562
rradius 56.303940
rwrist -33.971081
rhand -43.780769 -38.844849
rfingers 7.837522
rthumb -14.053269 -71.392860
lclavicle 0.000000 0.000000
lhumerus -51.949478 -11.349910 105.553139
lradius 32.672642
lwrist 13.871440
lhand -15.109160 -26.934820
lfingers 7.837522
lthumb 13.622400 5.639656
rfemur -8.207595 6.058096 32.929710
rtibia 24.374460
rfoot -22.263010 1.765137
rtoes -9.209167
lfemur -44.151253 5.431525 -20.782629
ltibia 43.195236
lfoot -15.947250 9.993402
ltoes -12.802350
